<svg id="Layer_1" data-name="Layer 1" xmlns="http://www.w3.org/2000/svg" xmlns:xlink="http://www.w3.org/1999/xlink" viewBox="0 0 120 120"><defs><style>.cls-1{fill:none;}.cls-2{fill:url(#linear-gradient);}.cls-3{fill:#fdfdff;}.cls-4{fill:url(#linear-gradient-2);}.cls-5{clip-path:url(#clip-path);}.cls-6{fill:#ffc630;}.cls-7{fill:#fec631;}.cls-8{fill:#fcc632;}.cls-9{fill:#fbc633;}.cls-10{fill:#fac534;}.cls-11{fill:#f9c535;}.cls-12{fill:#f7c537;}.cls-13{fill:#f6c538;}.cls-14{fill:#f5c539;}.cls-15{fill:#f4c53a;}.cls-16{fill:#f3c53b;}.cls-17{fill:#f1c43c;}.cls-18{fill:#f0c43d;}.cls-19{fill:#efc43e;}.cls-20{fill:#eec43f;}.cls-21{fill:#edc440;}.cls-22{fill:#ecc441;}.cls-23{fill:#ebc442;}.cls-24{fill:#e9c443;}.cls-25{fill:#e8c343;}.cls-26{fill:#e7c344;}.cls-27{fill:#e6c345;}.cls-28{fill:#e5c346;}.cls-29{fill:#e4c347;}.cls-30{fill:#e3c348;}.cls-31{fill:#e2c349;}.cls-32{fill:#e1c349;}.cls-33{fill:#e1c34a;}.cls-34{fill:#e0c34b;}.cls-35{fill:#dfc24c;}.cls-36{fill:#dec24c;}.cls-37{fill:#ddc24d;}.cls-38{fill:#ddc24e;}.cls-39{fill:#dcc24e;}.cls-40{fill:#dbc24f;}</style><linearGradient id="linear-gradient" x1="115.85" y1="85.51" x2="6.65" y2="35.69" gradientUnits="userSpaceOnUse"><stop offset="0" stop-color="#cf0079"/><stop offset="0.63" stop-color="#b2007d"/><stop offset="1" stop-color="#a6007f"/></linearGradient><linearGradient id="linear-gradient-2" x1="33.17" y1="84.31" x2="43.74" y2="84.31" gradientUnits="userSpaceOnUse"><stop offset="0" stop-color="#ffc630"/><stop offset="0.59" stop-color="#e7c345"/><stop offset="1" stop-color="#dbc24f"/></linearGradient><clipPath id="clip-path"><circle class="cls-1" cx="42.9" cy="84.31" r="2.22"/></clipPath></defs><title>1</title><circle class="cls-2" cx="60.05" cy="60.05" r="60"/><path class="cls-3" d="M51.26,75.8a2.72,2.72,0,0,1-2.73-2.75l.24-23.81a2.73,2.73,0,0,1,4.08-2.35L76.66,60.36a2.73,2.73,0,0,1-.27,4.88l-24,10.34A2.71,2.71,0,0,1,51.26,75.8Zm.25-27.35a.85.85,0,0,0-.41.11.8.8,0,0,0-.41.7l-.24,23.81a.81.81,0,0,0,1.13.75l24-10.34A.81.81,0,0,0,75.71,62L51.9,48.56A.77.77,0,0,0,51.51,48.45Z"/><path class="cls-3" d="M104.18,91.18H20.36a6.08,6.08,0,0,1-6.07-6.07V38.5a6.08,6.08,0,0,1,6.07-6.07h83.82a6.08,6.08,0,0,1,6.07,6.07V85.11A6.08,6.08,0,0,1,104.18,91.18ZM20.36,33.58a4.92,4.92,0,0,0-4.92,4.92V85.11A4.92,4.92,0,0,0,20.36,90h83.82a4.93,4.93,0,0,0,4.92-4.92V38.5a4.93,4.93,0,0,0-4.92-4.92Z"/><rect class="cls-3" x="24.84" y="32.82" width="1.15" height="57.09"/><rect class="cls-3" x="94.1" y="33.32" width="1.15" height="57.09"/><path class="cls-3" d="M20.6,65.19a.56.56,0,0,1-.57-.57V47.45a.57.57,0,0,1,.57-.57.58.58,0,0,1,.58.57V64.62A.57.57,0,0,1,20.6,65.19Z"/><path class="cls-3" d="M101.71,54.63a.38.38,0,0,1-.38-.38V37.08a.38.38,0,0,1,.38-.38.39.39,0,0,1,.39.38V54.25A.39.39,0,0,1,101.71,54.63Z"/><path class="cls-3" d="M101.71,88.34a.39.39,0,0,1-.38-.39V70.79a.39.39,0,0,1,.38-.39.4.4,0,0,1,.39.39V88A.4.4,0,0,1,101.71,88.34Z"/><path class="cls-3" d="M20.6,70.2a.56.56,0,0,1-.57-.57v-2.3a.57.57,0,0,1,.57-.58.58.58,0,0,1,.58.58v2.3A.57.57,0,0,1,20.6,70.2Z"/><path class="cls-3" d="M20.6,74a.56.56,0,0,1-.57-.57v-2.3a.56.56,0,0,1,.57-.57.57.57,0,0,1,.58.57v2.3A.57.57,0,0,1,20.6,74Z"/><path class="cls-3" d="M101.71,67.84a5,5,0,1,1,5-5A5,5,0,0,1,101.71,67.84Zm0-8.89a3.87,3.87,0,1,0,3.87,3.87A3.88,3.88,0,0,0,101.71,59Z"/><path class="cls-3" d="M88.75,84.88H33.93a.58.58,0,0,1,0-1.15H88.75a.58.58,0,0,1,0,1.15Z"/><path class="cls-4" d="M43,85.07h-9a.77.77,0,0,1,0-1.53h9a.77.77,0,0,1,0,1.53Z"/><g class="cls-5"><rect class="cls-6" x="40.68" y="82.08" width="0.12" height="4.44"/><rect class="cls-7" x="40.8" y="82.08" width="0.12" height="4.44"/><rect class="cls-8" x="40.93" y="82.08" width="0.12" height="4.44"/><rect class="cls-9" x="41.05" y="82.08" width="0.12" height="4.44"/><rect class="cls-10" x="41.17" y="82.08" width="0.12" height="4.44"/><rect class="cls-11" x="41.3" y="82.08" width="0.12" height="4.44"/><rect class="cls-12" x="41.42" y="82.08" width="0.12" height="4.44"/><rect class="cls-13" x="41.54" y="82.08" width="0.12" height="4.44"/><rect class="cls-14" x="41.67" y="82.08" width="0.12" height="4.44"/><rect class="cls-15" x="41.79" y="82.08" width="0.12" height="4.44"/><rect class="cls-16" x="41.91" y="82.08" width="0.12" height="4.44"/><rect class="cls-17" x="42.04" y="82.08" width="0.12" height="4.44"/><rect class="cls-18" x="42.16" y="82.08" width="0.12" height="4.44"/><rect class="cls-19" x="42.28" y="82.08" width="0.12" height="4.44"/><rect class="cls-20" x="42.41" y="82.08" width="0.12" height="4.44"/><rect class="cls-21" x="42.53" y="82.08" width="0.12" height="4.44"/><rect class="cls-22" x="42.65" y="82.08" width="0.12" height="4.44"/><rect class="cls-23" x="42.78" y="82.08" width="0.12" height="4.44"/><rect class="cls-24" x="42.9" y="82.08" width="0.12" height="4.44"/><rect class="cls-25" x="43.02" y="82.08" width="0.12" height="4.44"/><rect class="cls-26" x="43.15" y="82.08" width="0.12" height="4.44"/><rect class="cls-27" x="43.27" y="82.08" width="0.12" height="4.44"/><rect class="cls-28" x="43.39" y="82.08" width="0.12" height="4.44"/><rect class="cls-29" x="43.52" y="82.08" width="0.12" height="4.44"/><rect class="cls-30" x="43.64" y="82.08" width="0.12" height="4.44"/><rect class="cls-31" x="43.77" y="82.08" width="0.12" height="4.44"/><rect class="cls-32" x="43.89" y="82.08" width="0.12" height="4.44"/><rect class="cls-33" x="44.01" y="82.08" width="0.12" height="4.44"/><rect class="cls-34" x="44.14" y="82.08" width="0.12" height="4.44"/><rect class="cls-35" x="44.26" y="82.08" width="0.12" height="4.44"/><rect class="cls-36" x="44.38" y="82.08" width="0.12" height="4.44"/><rect class="cls-37" x="44.51" y="82.08" width="0.12" height="4.44"/><rect class="cls-38" x="44.63" y="82.08" width="0.12" height="4.44"/><rect class="cls-39" x="44.75" y="82.08" width="0.12" height="4.44"/><rect class="cls-40" x="44.88" y="82.08" width="0.12" height="4.44"/><rect class="cls-40" x="45" y="82.08" width="0.12" height="4.44"/></g></svg>