<svg id="Layer_1" data-name="Layer 1" xmlns="http://www.w3.org/2000/svg" xmlns:xlink="http://www.w3.org/1999/xlink" viewBox="0 0 120 120"><defs><style>.cls-1{fill:url(#linear-gradient);}.cls-2{fill:#fff;}.cls-3{fill:none;stroke:#fff;stroke-linecap:round;stroke-miterlimit:10;stroke-width:7px;}</style><linearGradient id="linear-gradient" y1="60" x2="120" y2="60" gradientUnits="userSpaceOnUse"><stop offset="0" stop-color="#eed64f"/><stop offset="1" stop-color="#ffb800"/></linearGradient></defs><title>1</title><circle class="cls-1" cx="60" cy="60" r="60"/><path class="cls-2" d="M22.78,78.26a1,1,0,0,1-1-1V75a1,1,0,0,1,1.92,0v2.3A1,1,0,0,1,22.78,78.26Z"/><path class="cls-2" d="M22.78,86.06a1,1,0,0,1-1-1V81.2a1,1,0,0,1,1.92,0v3.9A1,1,0,0,1,22.78,86.06Z"/><path class="cls-2" d="M22.78,92.25a1,1,0,0,1-1-1V89a1,1,0,0,1,1.92,0v2.3A1,1,0,0,1,22.78,92.25Z"/><path class="cls-2" d="M36.11,99.29a1,1,0,0,1-1-1V52.78a1,1,0,0,1,1.92,0V98.33A1,1,0,0,1,36.11,99.29Z"/><path class="cls-2" d="M97.22,92.62a1,1,0,0,1-1-1V46.85a1,1,0,0,1,1.92,0V91.67A1,1,0,0,1,97.22,92.62Z"/><path class="cls-2" d="M50.93,71.59a1,1,0,0,1-1-1v-2.3a1,1,0,0,1,1.91,0v2.3A1,1,0,0,1,50.93,71.59Z"/><path class="cls-2" d="M50.93,99.08a1,1,0,0,1-1-1V93.54a1,1,0,1,1,1.91,0v4.58A1,1,0,0,1,50.93,99.08Zm0-9.16a1,1,0,0,1-1-1V84.38a1,1,0,1,1,1.91,0V89A1,1,0,0,1,50.93,89.92Zm0-9.17a1,1,0,0,1-1-1V75.21a1,1,0,0,1,1.91,0V79.8A1,1,0,0,1,50.93,80.75Z"/><path class="cls-2" d="M50.93,106a1,1,0,0,1-1-1v-2.3a1,1,0,1,1,1.91,0V105A1,1,0,0,1,50.93,106Z"/><path class="cls-2" d="M67.59,108.18a1,1,0,0,1-1-1l-.37-37a1,1,0,0,1,1.92,0l.37,37a1,1,0,0,1-1,1Z"/><path class="cls-2" d="M83.89,60.48a1,1,0,0,1-1-1v-2.3a1,1,0,1,1,1.92,0v2.3A1,1,0,0,1,83.89,60.48Z"/><path class="cls-2" d="M83.89,94.58a1,1,0,0,1-1-1V89.36a1,1,0,0,1,1.92,0v4.26A1,1,0,0,1,83.89,94.58Zm0-8.52a1,1,0,0,1-1-1V80.83a1,1,0,0,1,1.92,0V85.1A1,1,0,0,1,83.89,86.06Zm0-8.53a1,1,0,0,1-1-1V72.31a1,1,0,0,1,1.92,0v4.26A1,1,0,0,1,83.89,77.53Zm0-8.52a1,1,0,0,1-1-1V63.78a1,1,0,0,1,1.92,0v4.27A1,1,0,0,1,83.89,69Z"/><path class="cls-2" d="M83.89,101.14a1,1,0,0,1-1-1v-2.3a1,1,0,0,1,1.92,0v2.3A1,1,0,0,1,83.89,101.14Z"/><path class="cls-3" d="M104.63,41.67"/><path class="cls-2" d="M8.15,74.29a.94.94,0,0,1-.63-.24,1,1,0,0,1-.09-1.35L29.62,47.47c5.36-6.1,8.58-4.27,12.31-2.16l21.23,12c2.8,1.49,4.35,2.32,5.39,2.16s2.21-1.42,4.34-3.71l28.37-30.44a1,1,0,0,1,1.4,1.3L74.29,57.09c-5,5.38-5.46,5.45-12.06,1.91L41,47c-3.61-2-5.6-3.16-9.93,1.76L8.87,74A1,1,0,0,1,8.15,74.29Z"/><path class="cls-2" d="M99.84,39.7a.67.67,0,0,1-.24,0,1,1,0,0,1-.69-1.16l3.48-13.58a1,1,0,0,1,1.17-.69,1,1,0,0,1,.69,1.16L100.77,39A1,1,0,0,1,99.84,39.7Z"/><path class="cls-2" d="M86.32,27.56a1,1,0,0,1-.09-1.91l17-1.79a1,1,0,1,1,.2,1.91l-17,1.78Z"/></svg>