<svg id="Layer_1" data-name="Layer 1" xmlns="http://www.w3.org/2000/svg" viewBox="0 0 120 120"><defs><style>.cls-1{fill:#00b8c6;}.cls-2{fill:#fdfdff;}.cls-3{fill:#fff;}</style></defs><title>2</title><circle class="cls-1" cx="60" cy="60" r="60"/><path class="cls-2" d="M76.8,99.83H29.35a6.32,6.32,0,0,1-6.05-6.55V25.11a6.32,6.32,0,0,1,6.05-6.56H76.8a6.32,6.32,0,0,1,6,6.56V70.35a1,1,0,1,1-1.92,0V25.11a4.41,4.41,0,0,0-4.13-4.64H29.35a4.41,4.41,0,0,0-4.13,4.64V93.28a4.41,4.41,0,0,0,4.13,4.64H76.8a4.41,4.41,0,0,0,4.13-4.64v-9.7a1,1,0,0,1,1.92,0v9.7A6.32,6.32,0,0,1,76.8,99.83Z"/><path class="cls-3" d="M99.31,97.06A5.06,5.06,0,0,1,96,95.83L60.61,65l-3.8-9.39a.43.43,0,0,1,.07-.46.45.45,0,0,1,.45-.13l9.78,2.59,35.49,30.6A5,5,0,0,1,99.88,97,5.44,5.44,0,0,1,99.31,97.06ZM61.25,64.55l35.26,30.7a4.27,4.27,0,1,0,5.59-6.45L66.75,58.31l-9-2.38Z"/><path class="cls-3" d="M59.14,59.84a2.61,2.61,0,0,0,2.65-3.05.31.31,0,0,0-.19-.27,34.64,34.64,0,0,0-3.91-1,.31.31,0,0,0-.35.43l1.51,3.72A.3.3,0,0,0,59.14,59.84Z"/><path class="cls-3" d="M60.93,65a.2.2,0,0,1-.19-.13.19.19,0,0,1,.13-.24L63,63.91a.43.43,0,0,0,.3-.35l.34-2.14a.82.82,0,0,1,.58-.67l2-.59a.45.45,0,0,0,.32-.38L66.74,58a.2.2,0,0,1,.21-.18.19.19,0,0,1,.17.21L67,59.81a.83.83,0,0,1-.59.72l-2,.59a.43.43,0,0,0-.31.36l-.34,2.14a.84.84,0,0,1-.56.66L61,65Z"/><rect class="cls-2" x="24.26" y="30.66" width="57.54" height="0.77"/><path class="cls-2" d="M76.4,25.71H56.58a.38.38,0,1,1,0-.76H76.4a.38.38,0,1,1,0,.76Z"/><path class="cls-2" d="M76.46,42.48H47.88a.39.39,0,0,1,0-.77H76.46a.39.39,0,1,1,0,.77Z"/><path class="cls-2" d="M59.83,63.2h-11a.39.39,0,0,1-.39-.38.4.4,0,0,1,.39-.39h11a.39.39,0,0,1,.38.39A.38.38,0,0,1,59.83,63.2Z"/><path class="cls-2" d="M76.46,63.06H72.39a.39.39,0,1,1,0-.77h4.07a.39.39,0,1,1,0,.77Z"/><path class="cls-2" d="M76.46,83.5H47.88a.38.38,0,1,1,0-.76H76.46a.38.38,0,1,1,0,.76Z"/><path class="cls-2" d="M43.15,42.57h0a.37.37,0,0,0-.43.36,6.85,6.85,0,1,1-2.49-5.37.36.36,0,0,0,.53-.06h0a.38.38,0,0,0,0-.52,7.6,7.6,0,1,0,2.76,6A.37.37,0,0,0,43.15,42.57Z"/><path class="cls-2" d="M35.86,50.63a7.81,7.81,0,0,1-7.75-7.18,7.91,7.91,0,0,1,6.69-8.34,7.81,7.81,0,0,1,6,1.72.57.57,0,0,1,.08.78.55.55,0,0,1-.38.23.57.57,0,0,1-.43-.13A6.61,6.61,0,0,0,35,36.24a6.7,6.7,0,0,0-4.62,2.86,6.65,6.65,0,1,0,12.14,3.82.51.51,0,0,1,.2-.41.52.52,0,0,1,.45-.13l0,.19,0-.19a.55.55,0,0,1,.49.56,7.83,7.83,0,0,1-6.75,7.62A7.41,7.41,0,0,1,35.86,50.63Zm0-15.21a8.57,8.57,0,0,0-1,.07,7.52,7.52,0,0,0-6.36,7.93,7.42,7.42,0,0,0,8.37,6.76,7.45,7.45,0,0,0,6.42-7.24.18.18,0,0,0-.16-.18h0a.17.17,0,0,0-.15,0,.18.18,0,0,0-.06.13,7.05,7.05,0,1,1-2.56-5.51.23.23,0,0,0,.14,0,.14.14,0,0,0,.11-.07.19.19,0,0,0,0-.26A7.38,7.38,0,0,0,35.86,35.42Z"/><path class="cls-2" d="M35.88,70.26a7.8,7.8,0,1,1,7.8-7.79A7.8,7.8,0,0,1,35.88,70.26Zm0-14.44a6.65,6.65,0,1,0,6.65,6.65A6.65,6.65,0,0,0,35.88,55.82Z"/><path class="cls-2" d="M35.88,90.3a7.8,7.8,0,1,1,7.8-7.79A7.8,7.8,0,0,1,35.88,90.3Zm0-14.44a6.65,6.65,0,1,0,6.65,6.65A6.65,6.65,0,0,0,35.88,75.86Z"/><path class="cls-2" d="M35.79,45.75h-.12a1.38,1.38,0,0,1-1-.5l-2.14-2.79a.57.57,0,1,1,.91-.7l2.13,2.77a.27.27,0,0,0,.16.08.23.23,0,0,0,.17-.06l8.14-7.07a.57.57,0,0,1,.75.87L36.7,45.41A1.37,1.37,0,0,1,35.79,45.75Z"/><path class="cls-2" d="M79.13,77.16a.35.35,0,0,1-.25-.1l-8.76-7.62a.38.38,0,1,1,.5-.58l8.76,7.62a.39.39,0,0,1,0,.55A.41.41,0,0,1,79.13,77.16Z"/><path class="cls-2" d="M83.32,81a.35.35,0,0,1-.25-.1l-3-2.66a.39.39,0,0,1,.51-.58l3,2.67a.38.38,0,0,1,0,.54A.39.39,0,0,1,83.32,81Z"/><path class="cls-3" d="M93.48,93.12s2.28,0,2.73-1.82.45-1.79,1.79-2.23,1.5-3.11,1.64-2.9,5.1,3,4.19,7C102.88,94.81,99.68,100.3,93.48,93.12Z"/></svg>