<svg id="Layer_1" data-name="Layer 1" xmlns="http://www.w3.org/2000/svg" xmlns:xlink="http://www.w3.org/1999/xlink" viewBox="0 0 120 120"><defs><style>.cls-1{fill:url(#linear-gradient);}.cls-2{fill:#fff;}.cls-3{fill:#fcfcfc;}.cls-4{fill:#fffefd;}</style><linearGradient id="linear-gradient" x1="25.87" y1="45.51" x2="136.36" y2="92.43" gradientUnits="userSpaceOnUse"><stop offset="0" stop-color="#cf0079"/><stop offset="0.63" stop-color="#b2007d"/><stop offset="1" stop-color="#a6007f"/></linearGradient></defs><title>2</title><circle class="cls-1" cx="60" cy="60" r="60"/><path class="cls-2" d="M37.93,70.61h0c-8.1-.34-14.44-3.12-19.39-8.49a22,22,0,0,1-5-20.43c2.84-10.58,9.34-14.53,14.29-16a23,23,0,0,1,10.09-.61c14.07-1.34,20.28,5.59,23,11.65a23.65,23.65,0,0,1-1.7,22.54C52.11,70.4,38.83,70.61,37.93,70.61Zm-3.63-45a22.32,22.32,0,0,0-6.29.88c-6.91,2-11.53,7.22-13.74,15.43A21.24,21.24,0,0,0,19.06,61.6c4.87,5.29,10.86,7.91,18.85,8.24.13,0,13.58.12,20.67-11a22.91,22.91,0,0,0,1.64-21.82c-2.63-5.83-8.63-12.51-22.29-11.19h-.06l0,0A20.5,20.5,0,0,0,34.3,25.58Z"/><path class="cls-2" d="M13.47,48.88a.68.68,0,0,1-.67-.64,22.27,22.27,0,0,1,.73-6.55c2.84-10.58,9.34-14.53,14.29-16a23,23,0,0,1,10.09-.61c14.07-1.34,20.28,5.59,23,11.65a23.73,23.73,0,0,1,2,11l0,.29-.34.08a1.31,1.31,0,0,1-1.3-.5c-1-1.36-3.21-1.7-4.1-1.79a2,2,0,0,1-1.38-.76l-3.5-4.46-.56,3.92a1.48,1.48,0,0,1-1.45,1.28c-1.42,0-4.57.11-9.72.4a38,38,0,0,1-10.42-.63,1.62,1.62,0,0,1-1.22-1.22l-1-4.26A.11.11,0,0,0,27.9,40a.08.08,0,0,0-.08,0c-.31.15-1,.71-2.11,2.7-1.23,2.22-2.29,3.28-3.11,3.13l-.3-.05a5.52,5.52,0,0,0-.65-.11c-3.5-.2-6.58,2.06-7.75,3A.62.62,0,0,1,13.47,48.88ZM34.3,25.58a22.32,22.32,0,0,0-6.29.88c-6.91,2-11.53,7.22-13.74,15.43A21.41,21.41,0,0,0,13.56,48c1.34-1.09,4.51-3.29,8.13-3.09a5.79,5.79,0,0,1,.76.11l.28.06s.73.09,2.31-2.75a7.38,7.38,0,0,1,2.44-3,.87.87,0,0,1,1.22.59l1,4.26a.84.84,0,0,0,.64.64,36.63,36.63,0,0,0,10.21.61c5.16-.28,8.33-.37,9.75-.4a.71.71,0,0,0,.7-.62l.58-4.07a.71.71,0,0,1,.51-.58.73.73,0,0,1,.74.25l3.6,4.58a1.22,1.22,0,0,0,.85.47c1.23.12,3.47.55,4.63,2.08a.55.55,0,0,0,.3.21,22.94,22.94,0,0,0-2-10.28c-2.63-5.83-8.63-12.51-22.29-11.19h-.06l0,0A20.5,20.5,0,0,0,34.3,25.58Z"/><circle class="cls-3" cx="33.18" cy="49.09" r="1.23"/><path class="cls-4" d="M33.18,50.51a1.42,1.42,0,1,1,1.42-1.42A1.43,1.43,0,0,1,33.18,50.51Zm0-2.46a1,1,0,1,0,1,1A1,1,0,0,0,33.18,48.05Z"/><circle class="cls-3" cx="42.82" cy="49.09" r="1.23"/><path class="cls-4" d="M42.82,50.51a1.42,1.42,0,1,1,1.42-1.42A1.43,1.43,0,0,1,42.82,50.51Zm0-2.46a1,1,0,1,0,1,1A1,1,0,0,0,42.82,48.05Z"/><path class="cls-2" d="M35.84,54.22A3.25,3.25,0,0,1,37,53.09a3.29,3.29,0,0,1,1.57-.52,3.09,3.09,0,0,1,.43,0l.42.07a2.84,2.84,0,0,1,.77.35,2.94,2.94,0,0,1,.62.54,4,4,0,0,1,.42.68c-.25-.12-.44-.28-.66-.39a5.21,5.21,0,0,0-.65-.29,4.23,4.23,0,0,0-.65-.18,2.92,2.92,0,0,0-.66,0,4.65,4.65,0,0,0-1.34.28C36.77,53.79,36.32,54,35.84,54.22Z"/><path class="cls-2" d="M38,65a9.57,9.57,0,0,1-3.53-.65,9.33,9.33,0,0,1-5.72-6.51l-.18-.66.66.19c.11,0,11.42,3.2,18.18-.38l.61-.32,0,.68c0,.2-.39,4.93-6.3,7A11,11,0,0,1,38,65Zm-8.31-6.72a8.43,8.43,0,0,0,5.06,5.36,9.54,9.54,0,0,0,6.66,0C45.52,62.14,46.7,59.29,47,58,40.91,60.74,32.14,58.88,29.64,58.25Z"/><path class="cls-2" d="M14.19,55.58H14c-.95-.15-2.93-.45-3.38-2.7a3.81,3.81,0,0,1,2.27-4.12l.46-.21.07.5a20.48,20.48,0,0,0,1.31,5.62.64.64,0,0,1-.56.93ZM12.77,49.7a2.89,2.89,0,0,0-1.38,3A2.67,2.67,0,0,0,14,54.78,22.28,22.28,0,0,1,12.77,49.7Z"/><polygon class="cls-2" points="38.51 74.63 34.88 71.45 34.65 70.3 35.4 70.15 35.58 71.05 38.51 73.61 41.41 71.08 41.41 69.86 42.18 69.86 42.18 71.42 38.51 74.63"/><path class="cls-2" d="M36.06,80.81l-.27-.24c-1.68-1.49-7.12-6.49-6.24-8.26s5.22-1.49,5.71-1.44l-.07.76c-1.64-.15-4.44,0-5,1-.41.83,2.63,4.26,5.77,7.08a13.6,13.6,0,0,0,2.13-5.68l.23-1.25.5,1.17a33.74,33.74,0,0,0,3,5.9c.71-.55,2.9-4.4,4.76-8.09-1.87-1.21-4.68-.18-4.71-.17l-.27-.72c.14,0,3.51-1.29,5.71.47l.24.2-.14.27c-4.68,9.37-5.5,9-5.85,8.79-.71-.35-2.14-3.37-3-5.24-.88,3.69-2.26,5.11-2.32,5.17Z"/><path class="cls-2" d="M13.24,96.49h-.76v-13c0-.22.62-5.51,3-7.63S28.57,72.56,29,72.51l.08.76c-.11,0-10.9,1.24-13.1,3.19s-2.73,6.77-2.77,7.12Z"/><path class="cls-2" d="M61.32,99l0-13.74c0-.11.47-7.61-3-9.52s-11.63-2.61-11.71-2.62l.06-.77c.33,0,8.26.65,12,2.72s3.42,9.88,3.39,10.21l0,13.72Z"/><path class="cls-2" d="M84.31,81.27h0c-7-.3-12.5-2.78-16.78-7.58a20.08,20.08,0,0,1-4.3-18.22c4.56-17.53,20-15,21.11-14.8,12.17-1.2,17.54,5,19.91,10.39a21.67,21.67,0,0,1-1.47,20.11C96.59,81.09,85.09,81.27,84.31,81.27ZM81.17,41.18a18.54,18.54,0,0,0-5.42.78c-5.94,1.8-9.92,6.41-11.81,13.71a19.29,19.29,0,0,0,4.12,17.51c4.2,4.7,9.35,7,16.24,7.32.1,0,11.68.1,17.79-9.73a20.92,20.92,0,0,0,1.41-19.4c-2.26-5.18-7.43-11.11-19.18-9.94H84.2A15.86,15.86,0,0,0,81.17,41.18Z"/><path class="cls-2" d="M95.52,59.9c-6.69,0-11.29-1.65-14.22-3.31a17.53,17.53,0,0,1-5.79-5C71.94,59.21,63.13,58.64,63,58.64l-.39,0,0-.4a21.31,21.31,0,0,1,.51-2.74c3.73-14.34,14.62-15.29,19.13-15,1.57.09,3.15.09,4.77.08,10.32-.08,15,5.69,17.12,10.54A21.53,21.53,0,0,1,106,58.62l0,.49-.48-.09a2.6,2.6,0,0,0-1,0A48.89,48.89,0,0,1,95.52,59.9ZM75.4,49.83l.39.72c.06.12,6.61,11.8,28.54,7.71a3.5,3.5,0,0,1,.85,0,20.57,20.57,0,0,0-1.68-6.84C100.56,44.62,95,41.23,87.09,41.28c-1.63,0-3.22,0-4.81-.08C78,41,67.52,41.87,63.94,55.67a18.38,18.38,0,0,0-.44,2.21h0c1.81,0,8.84-.45,11.57-7.29Z"/><circle class="cls-3" cx="78.13" cy="62.03" r="1.04"/><path class="cls-4" d="M78.13,63.27A1.24,1.24,0,1,1,79.36,62,1.24,1.24,0,0,1,78.13,63.27Zm0-2.09A.85.85,0,1,0,79,62,.85.85,0,0,0,78.13,61.18Z"/><circle class="cls-3" cx="92.57" cy="62.21" r="1.04"/><path class="cls-4" d="M92.57,63.44a1.24,1.24,0,0,1,0-2.47,1.24,1.24,0,1,1,0,2.47Zm0-2.08a.85.85,0,1,0,.85.85A.86.86,0,0,0,92.57,61.36Z"/><path class="cls-2" d="M79.76,67.35a7.25,7.25,0,0,1,2.08-2.16,5.66,5.66,0,0,1,2.89-1.08,4.45,4.45,0,0,1,1.58.19,4.74,4.74,0,0,1,1.4.71,6.58,6.58,0,0,1,1.9,2.34,10.91,10.91,0,0,0-2.23-1.83,4.57,4.57,0,0,0-2.6-.65,6.33,6.33,0,0,0-2.63.83A14.56,14.56,0,0,0,79.76,67.35Z"/><path class="cls-2" d="M62.92,65.24a.76.76,0,0,1-.21,0l-.07,0c-.91-.31-2.81-1-2.85-3.26a3.8,3.8,0,0,1,3-3.65l.49-.12v.51a20.55,20.55,0,0,0,.28,5.76.63.63,0,0,1-.6.82Zm-.47-6a2.88,2.88,0,0,0-1.89,2.71,2.66,2.66,0,0,0,2.16,2.5A22.35,22.35,0,0,1,62.45,59.19Z"/><path class="cls-2" d="M91.57,85.49l-.07-.77A110.61,110.61,0,0,0,103.62,83c-.8-.76-1.59-2.26-1.05-5.21.05-.37,1.23-9.46,1.64-11.11l.41-2.43.75.13L105,66.8c-.4,1.63-1.62,11-1.64,11.07-.52,2.86.33,4.1.89,4.59a.72.72,0,0,1-.34,1.23A114,114,0,0,1,91.57,85.49Z"/><path class="cls-2" d="M76.45,85.74A75.25,75.25,0,0,1,62.82,83.8a.6.6,0,0,1,0-1.16c1-.35,1.66-1.38,2-3.26.33-1.62-1.37-11.11-2.05-14.62l.75-.15c.1.52,2.47,12.82,2.05,14.92-.25,1.24-.73,2.91-2.09,3.64a74.71,74.71,0,0,0,13,1.8Z"/><path class="cls-2" d="M105.63,65.24a4.23,4.23,0,0,1-.7-.06l.14-.76a2.54,2.54,0,0,0,1.56-.16,2.64,2.64,0,0,0,1.52-2.08,2.71,2.71,0,0,0-.94-2.45,4.11,4.11,0,0,0-1.85-.82l.09-.76a4.75,4.75,0,0,1,2.25,1,3.43,3.43,0,0,1,1.2,3.14A3.35,3.35,0,0,1,107,65,3.1,3.1,0,0,1,105.63,65.24Z"/><polygon class="cls-2" points="84.53 87.82 80.81 84.56 80.81 80.69 81.58 80.69 81.58 84.21 84.42 86.7 86.56 83.84 86.56 80.69 87.32 80.69 87.32 84.1 84.53 87.82"/><path class="cls-2" d="M82,93c-.81,0-6.14-5.33-6.52-6.85a1,1,0,0,1,.19-.88c.93-1.1,4.78-.88,5.54-.83l0,.77c-1.74-.13-4.4,0-4.9.56a.19.19,0,0,0,0,.19c.33,1.32,4.65,5.45,5.71,6.19a42.85,42.85,0,0,0,2.18-5l.71.27C82.69,93,82.3,93,82,93Zm.1-.75Z"/><path class="cls-2" d="M86.91,92.84a.76.76,0,0,1-.51-.2,8.05,8.05,0,0,1-2.3-5l.76-.09a7.19,7.19,0,0,0,2.06,4.55c2.07-2.16,4.41-5.13,4.16-6.38S88,84.25,87,84.35l-.08-.76c.18,0,4.46-.42,4.93,2,.38,1.89-2.93,5.57-4.37,7.07A.78.78,0,0,1,86.91,92.84Z"/><path class="cls-2" d="M61.34,99.18c0-.38-.51-9.3,3.45-11.44s11-1.65,11.29-1.63l0,.76c-.07,0-7.23-.43-10.88,1.54s-3.05,10.64-3,10.73Z"/><path class="cls-2" d="M104.82,99.16c0-.09,0-8.81-4.19-10.74a23.35,23.35,0,0,0-9.09-1.91l0-.77a23.8,23.8,0,0,1,9.44,2c4.57,2.13,4.63,11,4.63,11.43Z"/><path class="cls-2" d="M85.14,76.08H84.6c-4.81-.3-8.09-4.41-8.22-4.58A.38.38,0,1,1,77,71s3.2,4,7.67,4.29c2.67.16,5.28-1,7.76-3.5a.39.39,0,0,1,.55,0,.38.38,0,0,1,0,.54C90.47,74.83,87.84,76.08,85.14,76.08Z"/><rect class="cls-2" x="73.6" y="98.9" width="21.22" height="0.77" transform="translate(-15.61 182.85) rotate(-89.64)"/><path class="cls-2" d="M39.18,80.73a4,4,0,0,1-2.53-1.55l.59-.48c.31.39,1.3,1.37,2.08,1.26.41-.07.77-.45,1-1.16l.71.29c-.39,1-.94,1.52-1.65,1.62A1.06,1.06,0,0,1,39.18,80.73Z"/><path class="cls-2" d="M37.93,103a.9.9,0,0,1-.25,0l-.19,0-.07-.18c-2.36-5.39-.16-18.08.57-21.85h0a.53.53,0,0,1,.52-.42h0a.52.52,0,0,1,.52.42c3.07,15,1.83,20,.25,21.49A1.93,1.93,0,0,1,37.93,103Zm.59-20.74c-.75,4.18-2.43,15.1-.49,20a1.24,1.24,0,0,0,.75-.41C39.91,100.68,41.34,96.62,38.52,82.27Z"/></svg>