<svg id="Layer_1" data-name="Layer 1" xmlns="http://www.w3.org/2000/svg" viewBox="0 0 120 120"><defs><style>.cls-1{fill:#f3c203;}.cls-2{fill:#fff;}</style></defs><title>3</title><circle class="cls-1" cx="60" cy="60" r="60"/><path class="cls-2" d="M89.51,63.94h-.19a1.15,1.15,0,0,1-.95-1.32l6.48-40.08a2.35,2.35,0,0,0-.51-1.81,2.31,2.31,0,0,0-1.68-.87l-43.23-3a2.39,2.39,0,0,0-2.54,2.21L45.67,36.18A1.15,1.15,0,1,1,43.38,36L44.6,18.9a4.68,4.68,0,0,1,5-4.33l43.23,3a4.7,4.7,0,0,1,4.31,5.33L90.64,63A1.15,1.15,0,0,1,89.51,63.94Z"/><path class="cls-2" d="M84.29,87.32H66.9a1.15,1.15,0,0,1,0-2.3H84.29c1.31,0,1.74-1.11,1.87-2l2.59-22.62a1.15,1.15,0,1,1,2.28.26L88.44,83.27C88.08,85.78,86.49,87.32,84.29,87.32Z"/><rect class="cls-2" x="69.32" y="2.38" width="1.53" height="49.62" transform="translate(38.22 95.28) rotate(-86.12)"/><rect class="cls-2" x="80.24" y="68.97" width="0.77" height="14.06" transform="translate(0.52 152.55) rotate(-87.01)"/><path class="cls-1" d="M68.67,77.52c-1.86,3.81-3.5,15.74-3.5,15.74a7.77,7.77,0,0,1-.34.77c-4.64,9.19-18.82,7.28-22.65,3.45a16.51,16.51,0,0,1-.89-2.36c-1-2.86-2.27-5.76-2.27-5.76a24.15,24.15,0,0,0,7,1.22c5.73.33,14.14-1.7,21.16-10.94C67.68,79,68.18,78.27,68.67,77.52Z"/><path class="cls-2" d="M52.33,101c-4.52,0-8.62-1.49-10.42-3.29l0,0,0,0a16.2,16.2,0,0,1-.92-2.42c-1-2.8-2.24-5.68-2.25-5.71l-.37-.82.85.3A24.18,24.18,0,0,0,46,90.2c3.64.21,12.94-.41,20.84-10.79.52-.68,1-1.39,1.48-2.1l.67.38c-1.82,3.71-3.45,15.5-3.47,15.62l0,.09c-.13.32-.24.57-.36.81-2.28,4.52-6.55,6.08-9.73,6.59A19.34,19.34,0,0,1,52.33,101Zm-9.84-3.79c2.07,2,7.53,3.64,12.83,2.79a11.91,11.91,0,0,0,9.17-6.18c.1-.2.2-.43.31-.7A117.8,117.8,0,0,1,67.36,80C59.27,90.55,49.73,91.18,46,91a26.62,26.62,0,0,1-6.28-1c.45,1.06,1.27,3.05,1.94,5A17.74,17.74,0,0,0,42.49,97.25Z"/><path class="cls-1" d="M73.6,75.63c-.18,2.23-4.32,4.58-5.36,2.68A16.39,16.39,0,0,0,70,75.44s.51-1.15,1.17-3.06C71.13,72.38,74,71,73.6,75.63Z"/><path class="cls-2" d="M69.54,79.39a1.77,1.77,0,0,1-1.64-.89l-.12-.22.15-.2A7.87,7.87,0,0,0,69,76.43c.14-.27.3-.6.63-1.16.07-.16.55-1.27,1.15-3l0-.16L71,72a2.21,2.21,0,0,1,2.06.08c.79.55,1.11,1.74,1,3.54h0c-.14,1.66-2.12,3.3-3.8,3.66A3,3,0,0,1,69.54,79.39Zm-.83-1.07a1.4,1.4,0,0,0,1.32.25c1.36-.29,3.08-1.68,3.19-3h0c.13-1.49-.09-2.47-.62-2.84a1.34,1.34,0,0,0-1.16-.08c-.63,1.8-1.11,2.87-1.13,2.92l0,0c-.32.56-.48.88-.61,1.14A8,8,0,0,1,68.71,78.32Z"/><path class="cls-1" d="M62.17,36.6A24.08,24.08,0,0,0,48,35.3c-7.53,1.54-20.65,5.57-25.71,15.42,0,0-3.83,6.9-3.06,11.88,0,0-2.69,1.15-3.07.77s.56,1.82,4.16.52c-1.64.79-6.19,5.88-4.35,4.65,1.15-.76,5.55-3.26,5.55-3.26C19.76,67,19,68.54,19,69.31c.77-.77,2.3-2.68,3.07-1.15.38.77-2.49,7.85,5.94,14.37,4.91,3.8,8,5.77,11,6.83a24.15,24.15,0,0,0,7,1.22c5.73.33,14.14-1.7,21.16-10.94.51-.67,1-1.37,1.5-2.12h0c.44-.66.87-1.36,1.29-2.08,0,0,.51-1.15,1.17-3.06C73.84,64.54,79.1,43.78,62.17,36.6Z"/><path class="cls-2" d="M47.11,91c-.42,0-.79,0-1.12,0a24.46,24.46,0,0,1-7.1-1.24c-3-1-6-2.9-11.13-6.89-7-5.44-6.36-11.43-6.11-13.69a5.17,5.17,0,0,0,.06-.83.56.56,0,0,0-.36-.34c-.48-.08-1.33.82-1.79,1.3l-.3.31-.65.65v-.92a5.11,5.11,0,0,1,1.14-2.6c-1.33.77-3,1.73-3.61,2.15-.28.19-.55.34-.81.2a.43.43,0,0,1-.22-.39c0-.53,1.91-2.62,3.47-4a2.84,2.84,0,0,1-2.84-1.07.43.43,0,0,1,.09-.59.4.4,0,0,1,.52,0,8,8,0,0,0,2.42-.7c-.6-5,3-11.54,3.15-11.82,5.14-10,18.47-14.08,26-15.61a24.32,24.32,0,0,1,14.44,1.32h0C79.39,43.49,74.42,64,71.49,72.51c-.65,1.9-1.16,3-1.18,3.09l0,0c-.41.71-.83,1.39-1.24,2l-.06.09c-.47.72-1,1.44-1.51,2.13C60.07,89.61,51.42,91,47.11,91ZM21.3,67.2h.16a1.27,1.27,0,0,1,.94.78,2.53,2.53,0,0,1,0,1.24c-.26,2.34-.88,7.82,5.82,13,5.08,3.92,8,5.76,10.91,6.77A24.31,24.31,0,0,0,46,90.2c3.64.21,12.94-.41,20.84-10.79.49-.65,1-1.33,1.42-2h0l.06-.1c.42-.63.85-1.32,1.27-2,.07-.16.55-1.27,1.15-3C73.63,64,78.5,43.94,62,37a23.55,23.55,0,0,0-14-1.28c-7.35,1.5-20.44,5.48-25.44,15.22,0,.08-3.76,6.85-3,11.64l.05.3-.27.11a13.47,13.47,0,0,1-2.25.79,4.23,4.23,0,0,0,3.06-.21l.3.7a18.33,18.33,0,0,0-3.67,3.33c1.69-1,4.37-2.53,4.52-2.61l1.14-.24-.68.85a12,12,0,0,0-1.84,2.29A2.29,2.29,0,0,1,21.3,67.2Z"/><path class="cls-2" d="M98.09,105.65l.3-1q.1-.37.18-.72l0-.16c.13-.52.23-1,.33-1.55l0-.15c.2-1.12.36-2.24.47-3.33a50.67,50.67,0,0,0,.21-6.61A69.21,69.21,0,0,0,98,79.24c-.18-.87-.41-1.75-.63-2.59l-.13-.54c-.11-.4-.23-.79-.35-1.18l-.1-.36c-.13-.45-.28-.94-.48-1.53-.58-1.83-1.29-3.72-2.24-6a62.63,62.63,0,0,0-2.79-5.66,5.88,5.88,0,0,0-.73-1,2.5,2.5,0,0,1-.79-1.48s0-.14,0-.3c.74-5.18,1.73-17.65-5.08-21.46l-.08-.05h-.1a1.07,1.07,0,0,0-1,.61c-.13.32-.2,1,.77,2s1.43,6.78.31,10.26a1.77,1.77,0,0,0-.16.22c-.14.21-.23.33-.27.32s-.38-.05-1.19-1.66C81.51,45.93,79.48,44,78.78,44a2.31,2.31,0,0,0-1.53,1.21,1.58,1.58,0,0,0,0,1.65,24.6,24.6,0,0,0,1.46,3c.19.35.36.65.46.86l0,.06,0,0c.32.32,2.17,3.67,1.81,5.8v.06c0,.91.94,5.29,3.6,5.66a.71.71,0,0,1,.55.55l0,.12c.06.31.12.6.18.82l.37,1.38.33,1.41c.16.63.29,1.28.41,1.91l.18.86a67.47,67.47,0,0,1,1.16,11.15,64.1,64.1,0,0,1-.7,11c-.18,1.23-.4,2.54-.7,4.08-9.3-3.23-21.13-2.29-21.25-2.28l-.14,0-.1.09a4.23,4.23,0,0,1-.4.34l-.07.06,0,.08c-3.13,6.51-10.52,6.65-13.55,6.4-4.64-.38-8.34-2.24-8.77-3.67-.15-.52-.32-1-.51-1.6l-.07-.2-.2,0c-14.33-3.49-23,5.28-23.42,5.71a10.46,10.46,0,0,0-1.17,1.22l.59.49a10.07,10.07,0,0,1,1.1-1.15l0,0c.08-.09,8.42-8.87,22.48-5.54.16.46.31.93.44,1.37.58,2,4.73,3.83,9.44,4.21,3.17.26,10.9.12,14.27-6.75l.28-.24C66.75,94,78,93.27,86.65,96.43l.42.15.08-.44c.34-1.75.59-3.19.79-4.55a66.56,66.56,0,0,0,.71-11.08,69.2,69.2,0,0,0-1.18-11.29c-.06-.29-.12-.57-.17-.86-.13-.64-.27-1.3-.43-1.94L86.54,65l-.37-1.39c0-.2-.11-.48-.17-.77l0-.12a1.43,1.43,0,0,0-1.19-1.15c-2-.28-2.93-3.94-3-4.88.38-2.4-1.46-5.76-2-6.38l-.45-.84A22.52,22.52,0,0,1,78,46.58l0-.1a.77.77,0,0,1-.07-.79,1.84,1.84,0,0,1,.89-.9,10.58,10.58,0,0,1,3.5,4.38c.71,1.42,1.25,2,1.81,2.08s.78-.38,1-.65l.14-.18.06-.07,0-.08c1.15-3.44.88-9.78-.47-11.12-.59-.6-.66-1-.6-1.12a.27.27,0,0,1,.24-.14c6.28,3.65,5.31,15.63,4.59,20.63,0,.2,0,.32,0,.36a3.06,3.06,0,0,0,1,2,5.16,5.16,0,0,1,.65.89,61.19,61.19,0,0,1,2.75,5.59c.94,2.21,1.65,4.09,2.22,5.9.2.59.35,1.06.47,1.51l.11.36c.11.38.23.77.33,1.16l.14.53c.22.84.44,1.7.62,2.56a68,68,0,0,1,1.63,12.73,49.07,49.07,0,0,1-.21,6.51c-.1,1.07-.26,2.18-.45,3.27l0,.14c-.09.5-.19,1-.31,1.52l0,.16c-.06.23-.11.46-.18.69l-.29,1a12.3,12.3,0,0,1-1.29,2.52c.46-.35.94-.73,1.43-1.13A3.08,3.08,0,0,0,98.09,105.65Z"/><path class="cls-1" d="M17.38,102.17a10.07,10.07,0,0,1,1.1-1.15l0,0c.08-.09,8.42-8.87,22.48-5.54.16.46.31.93.44,1.37.58,2,4.73,3.83,9.44,4.21,3.17.26,10.9.12,14.27-6.75l.28-.24C66.75,94,78,93.27,86.65,96.43l.42.15.08-.44c.34-1.75.59-3.19.79-4.55a66.56,66.56,0,0,0,.71-11.08,69.2,69.2,0,0,0-1.18-11.29c-.06-.29-.12-.57-.17-.86-.13-.64-.27-1.3-.43-1.94L86.54,65l-.37-1.39c0-.2-.11-.48-.17-.77l0-.12a1.43,1.43,0,0,0-1.19-1.15c-2-.28-2.93-3.94-3-4.88.38-2.4-1.46-5.76-2-6.38l-.45-.84A22.52,22.52,0,0,1,78,46.58l0-.1a.77.77,0,0,1-.07-.79,1.84,1.84,0,0,1,.89-.9,10.58,10.58,0,0,1,3.5,4.38c.71,1.42,1.25,2,1.81,2.08s.78-.38,1-.65l.14-.18.06-.07,0-.08c1.15-3.44.88-9.78-.47-11.12-.59-.6-.66-1-.6-1.12a.27.27,0,0,1,.24-.14c6.28,3.65,5.31,15.63,4.59,20.63,0,.2,0,.32,0,.36a3.06,3.06,0,0,0,1,2,5.16,5.16,0,0,1,.65.89,61.19,61.19,0,0,1,2.75,5.59c.94,2.21,1.65,4.09,2.22,5.9.2.59.35,1.06.47,1.51l.11.36c.11.38.23.77.33,1.16l.14.53c.22.84.44,1.7.62,2.56a68,68,0,0,1,1.63,12.73,49.07,49.07,0,0,1-.21,6.51c-.1,1.07-.26,2.18-.45,3.27l0,.14c-.09.5-.19,1-.31,1.52l0,.16c-.06.23-.11.46-.18.69l-.29,1a12.3,12.3,0,0,1-1.29,2.52"/><path class="cls-2" d="M80.45,23.4h0l-16.79-1a.77.77,0,0,1,.08-1.53l16.8,1a.77.77,0,0,1,0,1.53Z"/></svg>