<svg id="Layer_1" data-name="Layer 1" xmlns="http://www.w3.org/2000/svg" xmlns:xlink="http://www.w3.org/1999/xlink" viewBox="0 0 120 120"><defs><style>.cls-1,.cls-5{fill:none;}.cls-2{fill:url(#linear-gradient);}.cls-3{fill:#fff;}.cls-4{fill:#fdfdff;}.cls-5{stroke:#fff;stroke-miterlimit:10;stroke-width:0.25px;}.cls-6{clip-path:url(#clip-path);}.cls-7{fill:#20eb94;}.cls-8{fill:#20ea94;}.cls-9{fill:#20e994;}.cls-10{fill:#20e894;}.cls-11{fill:#20e794;}.cls-12{fill:#20e694;}.cls-13{fill:#20e594;}.cls-14{fill:#20e494;}.cls-15{fill:#20e394;}.cls-16{fill:#20e294;}.cls-17{fill:#20e094;}.cls-18{fill:#20df94;}.cls-19{fill:#20de94;}.cls-20{fill:#20dd94;}.cls-21{fill:#20dc94;}.cls-22{fill:#20db94;}.cls-23{fill:#20da94;}.cls-24{fill:#20d994;}.cls-25{fill:#20d894;}</style><linearGradient id="linear-gradient" x1="6.71" y1="40.08" x2="116.48" y2="81.12" gradientUnits="userSpaceOnUse"><stop offset="0.19" stop-color="#20eb94"/><stop offset="1" stop-color="#20d894"/></linearGradient><clipPath id="clip-path"><path class="cls-1" d="M93.72,100.78a59.74,59.74,0,0,0-4.17-5.12c-.72-.83-2.22-1.4-2.29-2.42,0-.52,1.47-17.34-8.82-20.41-1,.13-1.32,1,.25,1.9s2.86,7,1.9,10.57c-.43.44-.7,2-3-.76s-4.87-4-5.34-3.92S70,82.07,71.13,83.09A34.4,34.4,0,0,0,74,86.57c.52.31,3.35,3.42,3.18,5.76.13,1,1.87,4.75,4.74,4.69a1.23,1.23,0,0,1,1.19.71c.13.32.25.64.36.87l.65,1.32.59,1.33c.41.88.74,1.79,1.11,2.67"/></clipPath></defs><title>3</title><circle class="cls-2" cx="60" cy="60" r="60"/><path class="cls-3" d="M79.61,50.94h-.38V36.6a3.17,3.17,0,0,0-3.16-3.16H61.73v-.39A17.88,17.88,0,0,1,80.44,15.19a18,18,0,0,1,17,17A17.9,17.9,0,0,1,79.61,50.94ZM62.5,32.67H76.07A3.94,3.94,0,0,1,80,36.6V50.17A17.12,17.12,0,0,0,96.71,32.23h0A17.22,17.22,0,0,0,80.41,16,17.12,17.12,0,0,0,62.5,32.67Z"/><path class="cls-4" d="M75.39,99.83H36a5.4,5.4,0,0,1-5.18-5.6V37.7A5.4,5.4,0,0,1,36,32.1H75.39a5.41,5.41,0,0,1,5.18,5.6V75.22a1,1,0,1,1-1.92,0V37.7A3.49,3.49,0,0,0,75.39,34H36a3.5,3.5,0,0,0-3.27,3.68V94.23A3.51,3.51,0,0,0,36,97.92H75.39a3.5,3.5,0,0,0,3.26-3.69v-8a1,1,0,0,1,1.92,0v8A5.41,5.41,0,0,1,75.39,99.83Z"/><path class="cls-3" d="M90.76,42.4a.36.36,0,0,1-.22-.07L78.45,33.87l4.81-9a.39.39,0,0,1,.52-.15.37.37,0,0,1,.16.51l-4.49,8.43L91,41.7a.39.39,0,0,1,.09.54A.36.36,0,0,1,90.76,42.4Z"/><path class="cls-5" d="M108.89,97.28"/><rect class="cls-4" x="31.81" y="42.24" width="47.72" height="0.77"/><path class="cls-4" d="M75.05,38.27H58.62a.39.39,0,0,1,0-.77H75.05a.39.39,0,1,1,0,.77Z"/><path class="cls-4" d="M75.11,52.17H51.41a.38.38,0,1,1,0-.76h23.7a.38.38,0,0,1,0,.76Z"/><path class="cls-4" d="M61.31,69.36H52.15a.4.4,0,0,1-.39-.39.39.39,0,0,1,.39-.38h9.16a.39.39,0,0,1,.39.38A.4.4,0,0,1,61.31,69.36Z"/><path class="cls-4" d="M75.11,69.24H71.73a.39.39,0,1,1,0-.77h3.38a.39.39,0,0,1,0,.77Z"/><path class="cls-4" d="M75.11,86.19H51.41a.38.38,0,1,1,0-.76h23.7a.38.38,0,1,1,0,.76Z"/><path class="cls-4" d="M47.48,52.18h0a.3.3,0,0,0-.35.3,5.67,5.67,0,1,1-6.42-5.7A5.62,5.62,0,0,1,45.05,48a.31.31,0,0,0,.44-.05h0a.31.31,0,0,0,0-.43,6.21,6.21,0,0,0-4.87-1.39,6.3,6.3,0,1,0,7.17,6.33A.31.31,0,0,0,47.48,52.18Z"/><path class="cls-4" d="M41.44,58.9a6.5,6.5,0,0,1-6.46-6,6.48,6.48,0,0,1,10.6-5.51.51.51,0,0,1,.07.69.5.5,0,0,1-.34.2.49.49,0,0,1-.38-.11,5.48,5.48,0,1,0,2,4.3.55.55,0,0,1,.18-.38.52.52,0,0,1,.4-.11l0,.19,0-.19a.51.51,0,0,1,.43.5,6.52,6.52,0,0,1-5.63,6.35A6.36,6.36,0,0,1,41.44,58.9Zm0-12.61a5.93,5.93,0,0,0-.84.06,6.18,6.18,0,0,0-5.24,6.53,6.1,6.1,0,0,0,6.9,5.58,6.15,6.15,0,0,0,5.3-6,.13.13,0,0,0-.11-.12h0a.09.09,0,0,0-.1,0,.09.09,0,0,0,0,.08,5.86,5.86,0,0,1-11.54,1.36,5.78,5.78,0,0,1,.83-4.73,5.85,5.85,0,0,1,8.57-1.23l.09,0a.12.12,0,0,0,.08,0,.14.14,0,0,0,0-.18A6.13,6.13,0,0,0,41.44,46.29Z"/><path class="cls-4" d="M41.45,75.25A6.57,6.57,0,1,1,48,68.68,6.57,6.57,0,0,1,41.45,75.25Zm0-12a5.42,5.42,0,1,0,5.42,5.41A5.42,5.42,0,0,0,41.45,63.27Z"/><path class="cls-4" d="M41.45,91.87A6.57,6.57,0,1,1,48,85.3,6.57,6.57,0,0,1,41.45,91.87Zm0-12a5.42,5.42,0,1,0,5.42,5.41A5.42,5.42,0,0,0,41.45,79.89Z"/><path class="cls-4" d="M41.38,54.92h-.11a1.24,1.24,0,0,1-.86-.45l-1.78-2.32a.58.58,0,0,1,.1-.81.59.59,0,0,1,.81.11l1.77,2.3s0,0,.06,0l.07,0,6.75-5.86a.57.57,0,0,1,.81.06.58.58,0,0,1-.06.81L42.2,54.61A1.25,1.25,0,0,1,41.38,54.92Z"/><path class="cls-3" d="M79.81,20.61a.38.38,0,0,1-.38-.38v-3.1a.38.38,0,0,1,.76,0v3.1A.38.38,0,0,1,79.81,20.61Z"/><path class="cls-3" d="M95.3,33.51H92.2a.39.39,0,0,1,0-.77h3.1a.39.39,0,0,1,0,.77Z"/><g class="cls-6"><rect class="cls-7" x="70.03" y="72.83" width="5.11" height="34.69"/><rect class="cls-7" x="75.14" y="72.83" width="0.98" height="34.69"/><rect class="cls-8" x="76.12" y="72.83" width="0.98" height="34.69"/><rect class="cls-9" x="77.09" y="72.83" width="0.98" height="34.69"/><rect class="cls-10" x="78.07" y="72.83" width="0.98" height="34.69"/><rect class="cls-11" x="79.05" y="72.83" width="0.98" height="34.69"/><rect class="cls-12" x="80.03" y="72.83" width="0.98" height="34.69"/><rect class="cls-13" x="81.01" y="72.83" width="0.98" height="34.69"/><rect class="cls-14" x="81.98" y="72.83" width="0.98" height="34.69"/><rect class="cls-15" x="82.96" y="72.83" width="0.98" height="34.69"/><rect class="cls-16" x="83.94" y="72.83" width="0.98" height="34.69"/><rect class="cls-17" x="84.92" y="72.83" width="0.98" height="34.69"/><rect class="cls-18" x="85.9" y="72.83" width="0.98" height="34.69"/><rect class="cls-19" x="86.87" y="72.83" width="0.98" height="34.69"/><rect class="cls-20" x="87.85" y="72.83" width="0.98" height="34.69"/><rect class="cls-21" x="88.83" y="72.83" width="0.98" height="34.69"/><rect class="cls-22" x="89.81" y="72.83" width="0.98" height="34.69"/><rect class="cls-23" x="90.79" y="72.83" width="0.98" height="34.69"/><rect class="cls-24" x="91.76" y="72.83" width="0.98" height="34.69"/><rect class="cls-25" x="92.74" y="72.83" width="0.98" height="34.69"/><rect class="cls-25" x="93.72" y="72.83" width="1.27" height="34.69"/></g><path class="cls-3" d="M85.47,104.07l-.33-.83c-.24-.61-.49-1.23-.77-1.83l-.59-1.34-.64-1.3c-.11-.22-.22-.5-.33-.79l0-.11a.83.83,0,0,0-.82-.46h-.07c-3,0-4.9-3.85-5.06-5V92.3c.15-2.14-2.57-5.14-3-5.4l-.06,0,0,0L73,86a21.63,21.63,0,0,1-2.19-2.7,1.35,1.35,0,0,1-.37-1.44,2.78,2.78,0,0,1,1.74-1.65c.73-.1,3.46,1.36,5.69,4.06,1.12,1.35,1.62,1.48,1.77,1.47s.26-.17.41-.41a2.07,2.07,0,0,1,.17-.24c.92-3.61-.46-9.29-1.75-10.06s-1.32-1.35-1.24-1.75a1.21,1.21,0,0,1,1.14-.86h.08l.08,0c8.9,2.66,9.33,15.2,9.1,20.47,0,.15,0,.25,0,.29,0,.47.58.88,1.16,1.3a7,7,0,0,1,1,.89A58.45,58.45,0,0,1,94,100.55l-.62.46a57.09,57.09,0,0,0-4.14-5.09,6,6,0,0,0-.92-.78c-.7-.51-1.42-1-1.47-1.87a2.76,2.76,0,0,1,0-.38c.22-5.07-.17-17.11-8.48-19.67-.25,0-.39.16-.41.24s.13.48.89.94c1.85,1.12,3,7.39,2.07,11l0,.09-.07.07s-.09.13-.14.21a1.35,1.35,0,0,1-1,.76c-.63,0-1.37-.5-2.4-1.75-2.16-2.61-4.57-3.78-5-3.78h0a2.2,2.2,0,0,0-1.11,1.15.6.6,0,0,0,.21.65l.07.09a21.21,21.21,0,0,0,2.13,2.63c.28.3.51.56.68.76.71.51,3.45,3.57,3.3,6,.16,1,1.77,4.33,4.3,4.33h.06a1.63,1.63,0,0,1,1.55,1l0,.1c.11.29.22.55.31.74l.64,1.32.6,1.35c.29.6.54,1.24.78,1.86l.33.82Z"/><path class="cls-7" d="M67.2,65,96.57,90.28a3.86,3.86,0,0,1,.61,5.18h0a3.86,3.86,0,0,1-5.66.65L62.22,70.6,59.1,62.89a.05.05,0,0,1,.06-.07Z"/><path class="cls-3" d="M94.06,97.44a4.27,4.27,0,0,1-2.79-1L61.9,70.83,58.75,63a.42.42,0,0,1,.07-.45.45.45,0,0,1,.44-.13l8.13,2.15L96.82,90a4.23,4.23,0,0,1-2.29,7.42A3.71,3.71,0,0,1,94.06,97.44ZM62.54,70.37,91.77,95.82a3.47,3.47,0,1,0,4.55-5.25L67,65.3,59.7,63.36Z"/><path class="cls-3" d="M60.75,66.5A2.16,2.16,0,0,0,62.94,64a.28.28,0,0,0-.16-.23,29.3,29.3,0,0,0-3.24-.85.26.26,0,0,0-.29.35l1.25,3.09A.25.25,0,0,0,60.75,66.5Z"/><path class="cls-3" d="M62.22,70.79a.19.19,0,0,1-.06-.37L64,69.85a.34.34,0,0,0,.23-.27l.27-1.77a.74.74,0,0,1,.51-.58l1.69-.49a.32.32,0,0,0,.24-.29L67,64.93a.19.19,0,0,1,.21-.17.19.19,0,0,1,.17.2l-.12,1.52a.71.71,0,0,1-.51.63l-1.69.49a.35.35,0,0,0-.24.27l-.28,1.77a.71.71,0,0,1-.48.57l-1.79.57Z"/><path class="cls-4" d="M77.32,80.93a.38.38,0,0,1-.25-.09L69.8,74.52a.38.38,0,1,1,.5-.58l7.27,6.32a.38.38,0,0,1,0,.54A.37.37,0,0,1,77.32,80.93Z"/><path class="cls-4" d="M80.8,84.09a.43.43,0,0,1-.26-.09L78,81.78a.38.38,0,1,1,.5-.57l2.53,2.21a.38.38,0,0,1,0,.54A.35.35,0,0,1,80.8,84.09Z"/><path class="cls-3" d="M89.22,94.1s1.89,0,2.26-1.51.37-1.48,1.48-1.85,1.25-2.58,1.37-2.4,4.23,2.51,3.47,5.79C97,95.5,94.36,100.06,89.22,94.1Z"/></svg>