<svg id="Layer_1" data-name="Layer 1" xmlns="http://www.w3.org/2000/svg" viewBox="0 0 120 120"><defs><style>.cls-1{fill:#f55498;}.cls-2{fill:#fff;}</style></defs><title>4</title><circle class="cls-1" cx="60" cy="60" r="60"/><path class="cls-2" d="M34,97a9.76,9.76,0,0,1-4.66-1.17,10.12,10.12,0,0,1-5.07-6.77l-8-29.88A15.52,15.52,0,0,1,17.59,48,14,14,0,0,1,26,40.86l1.06-.43a23.52,23.52,0,0,1,7-.83,12,12,0,0,1,6.26,2l18.25-7.31a11.86,11.86,0,0,1,3-5.2,23.85,23.85,0,0,1,5.61-4.2l.08,0,1-.4a14,14,0,0,1,11-.59A15.5,15.5,0,0,1,87.89,31l14.86,27.14A10,10,0,0,1,98,72.7a12.71,12.71,0,0,1-14.69-3.51l-7-7.21,1.1-1.07,7.05,7.28a11.18,11.18,0,0,0,12.93,3.1,8.48,8.48,0,0,0,4.06-12.38L86.54,31.74a14,14,0,0,0-7.8-6.44,12.47,12.47,0,0,0-9.85.51l-.08,0-1,.39a21.72,21.72,0,0,0-5.2,3.9A10.43,10.43,0,0,0,59.89,35l-.09.38L40.06,43.31l-.34-.24A10.39,10.39,0,0,0,34,41.13a21.92,21.92,0,0,0-6.46.77l-1.06.42A12.46,12.46,0,0,0,19,48.75a14,14,0,0,0-1.2,10l8,29.92a8.47,8.47,0,0,0,11.48,6.18,11.19,11.19,0,0,0,7.22-11.17v0L44.52,74h1.53L46,83.64a12.71,12.71,0,0,1-8.21,12.67A10.74,10.74,0,0,1,34,97Z"/><rect class="cls-2" x="52.82" y="62.2" width="12.7" height="1.15" transform="translate(-19.1 26.49) rotate(-21.82)"/><path class="cls-2" d="M47.12,74.61A7,7,0,1,1,53.63,65h0a7,7,0,0,1-6.51,9.62Zm0-13.25a6.24,6.24,0,1,0,5.79,3.92h0a6.23,6.23,0,0,0-5.79-3.92Z"/><path class="cls-2" d="M71.21,65a7,7,0,1,1,6.5-9.62h0a6.92,6.92,0,0,1-.06,5.36,7,7,0,0,1-3.84,3.75A6.92,6.92,0,0,1,71.21,65Zm0-13.26a6.24,6.24,0,0,0-5.79,8.56,6.24,6.24,0,0,0,8.11,3.48A6.25,6.25,0,0,0,77,55.63h0a6.28,6.28,0,0,0-5.79-3.92Z"/><path class="cls-2" d="M30.91,65.88l-1.76-4.39-4.4,1.76L22.24,57l4.4-1.76-1.76-4.4,6.27-2.51,1.76,4.4L37.3,51l2.51,6.27L35.42,59l1.76,4.39Zm-1.33-5.39,1.76,4.4L36.18,63l-1.76-4.4,4.4-1.76L36.88,52l-4.4,1.76-1.76-4.4-4.84,1.94,1.76,4.4-4.4,1.76,1.94,4.84Z"/><circle class="cls-2" cx="70.86" cy="40.85" r="2.21"/><circle class="cls-2" cx="81.69" cy="36.52" r="2.18"/><circle class="cls-2" cx="74.1" cy="33.29" r="2.21"/><circle class="cls-2" cx="78.43" cy="44.11" r="2.18"/></svg>