<?xml version="1.0" encoding="UTF-8"?>
<svg width="254px" height="75px" viewBox="0 0 254 75" version="1.1" xmlns="http://www.w3.org/2000/svg" xmlns:xlink="http://www.w3.org/1999/xlink">
    <!-- Generator: Sketch 54.1 (76490) - https://sketchapp.com -->
    <title>Google Play Badge US</title>
    <desc>Created with Sketch.</desc>
    <defs>
        <linearGradient x1="61.1103571%" y1="4.9481245%" x2="26.3399252%" y2="71.9074222%" id="linearGradient-1">
            <stop stop-color="#00A0FF" offset="0%"></stop>
            <stop stop-color="#00A1FF" offset="1%"></stop>
            <stop stop-color="#00BEFF" offset="26%"></stop>
            <stop stop-color="#00D2FF" offset="51%"></stop>
            <stop stop-color="#00DFFF" offset="76%"></stop>
            <stop stop-color="#00E3FF" offset="100%"></stop>
        </linearGradient>
        <linearGradient x1="107.684729%" y1="50%" x2="-130.640394%" y2="50%" id="linearGradient-2">
            <stop stop-color="#FFE000" offset="0%"></stop>
            <stop stop-color="#FFBD00" offset="41%"></stop>
            <stop stop-color="#FFA500" offset="78%"></stop>
            <stop stop-color="#FF9C00" offset="100%"></stop>
        </linearGradient>
        <linearGradient x1="86.219293%" y1="31.0425744%" x2="-50.1497903%" y2="135.396134%" id="linearGradient-3">
            <stop stop-color="#FF3A44" offset="0%"></stop>
            <stop stop-color="#C31162" offset="100%"></stop>
        </linearGradient>
        <linearGradient x1="-18.7537448%" y1="-11.4062829%" x2="42.1210306%" y2="35.1973289%" id="linearGradient-4">
            <stop stop-color="#32A071" offset="0%"></stop>
            <stop stop-color="#2DA771" offset="7%"></stop>
            <stop stop-color="#15CF74" offset="48%"></stop>
            <stop stop-color="#06E775" offset="80%"></stop>
            <stop stop-color="#00F076" offset="100%"></stop>
        </linearGradient>
    </defs>
    <g id="Page-1" stroke="none" stroke-width="1" fill="none" fill-rule="evenodd">
        <g id="Artboard" transform="translate(-374.000000, -687.000000)" fill-rule="nonzero">
            <g id="Home" transform="translate(373.000000, 30.000000)">
                <g id="Button" transform="translate(1.000000, 599.000000)">
                    <g id="Google-Play-Badge-US" transform="translate(0.000000, 58.000000)">
                        <rect id="Background-Black" fill="#127B5F" x="0" y="0" width="254" height="75" rx="9.375"></rect>
                        <path d="M244.592593,1.5 C248.956869,1.5 252.494815,5.0257576 252.494815,9.375 L252.494815,65.625 C252.494815,69.9742424 248.956869,73.5 244.592593,73.5 L9.40740741,73.5 C5.04313058,73.5 1.50518519,69.9742424 1.50518519,65.625 L1.50518519,9.375 C1.50518519,5.0257576 5.04313058,1.5 9.40740741,1.5 L244.592593,1.5 L244.592593,1.5 Z M244.592593,0 L9.40740741,0 C4.21183976,3.33066907e-15 0,4.19733047 0,9.375 L0,65.625 C0,70.8026695 4.21183976,75 9.40740741,75 L244.592593,75 C249.78816,75 254,70.8026695 254,65.625 L254,9.375 C254,4.19733047 249.78816,3.33066907e-15 244.592593,0 Z" id="Border-Gray" fill="#A6A6A6"></path>
                        <path d="M128.204148,40.78125 C123.792874,40.8019377 120.231698,44.3787771 120.245521,48.7748824 C120.259344,53.1709877 123.842944,56.7255155 128.254262,56.7186521 C132.66558,56.7117886 136.238025,53.1461268 136.238074,48.75 C136.269068,46.6207008 135.431354,44.5700808 133.916806,43.0678194 C132.402258,41.565558 130.340639,40.7403668 128.204148,40.78125 L128.204148,40.78125 Z M128.204148,53.5875 C126.21585,53.7260724 124.344614,52.6393378 123.485433,50.8470695 C122.626251,49.0548013 122.953753,46.9212803 124.311299,45.4669463 C125.668844,44.0126123 127.78051,43.5330607 129.636309,44.2576557 C131.492108,44.9822508 132.714847,46.7637176 132.719704,48.75 C132.780932,49.9925098 132.335943,51.2069864 131.485716,52.117832 C130.635489,53.0286775 129.45212,53.5586557 128.204148,53.5875 L128.204148,53.5875 Z M110.687556,40.78125 C106.273787,40.7915996 102.703164,44.3639004 102.710084,48.7624706 C102.717003,53.1610408 106.298848,56.7221673 110.712627,56.7187255 C115.126406,56.7152838 118.702654,53.1485756 118.702667,48.75 C118.73366,46.6207008 117.895947,44.5700808 116.381399,43.0678194 C114.86685,41.565558 112.805231,40.7403668 110.668741,40.78125 L110.687556,40.78125 Z M110.687556,53.5875 C108.69822,53.733887 106.821528,52.6525712 105.956291,50.8614311 C105.091055,49.0702911 105.413429,46.9339903 106.769019,45.4756751 C108.124609,44.0173599 110.237425,43.533933 112.095569,44.2569237 C113.953714,44.9799145 115.17888,46.7621271 115.184296,48.75 C115.245525,49.9925098 114.800536,51.2069864 113.950308,52.117832 C113.100081,53.0286775 111.916713,53.5586557 110.668741,53.5875 L110.687556,53.5875 Z M89.8219259,43.2375 L89.8219259,46.6125 L97.9499259,46.6125 C97.8224808,48.2021321 97.1594114,49.7021146 96.0684444,50.86875 C94.4240727,52.5379212 92.1484591,53.4368588 89.8031111,53.34375 C84.8153662,53.34375 80.772,49.3143127 80.772,44.34375 C80.772,39.3731873 84.8153662,35.34375 89.8031111,35.34375 C92.0943713,35.3065103 94.3069299,36.1763477 95.9555556,37.7625 L98.345037,35.38125 C96.0965154,33.112234 93.0217961,31.8473515 89.8219259,31.875 C85.2667854,31.6983357 80.9797034,34.0193846 78.6494143,37.923857 C76.3191251,41.8283294 76.3191251,46.6904206 78.6494143,50.594893 C80.9797034,54.4993654 85.2667854,56.8204143 89.8219259,56.64375 C93.0802098,56.7904769 96.2429344,55.5256429 98.4955556,53.175 C100.466738,51.016728 101.519177,48.1795523 101.430667,45.2625 C101.436738,44.5518529 101.373728,43.8422903 101.242519,43.14375 L89.8219259,43.2375 Z M175.071852,45.8625 C174.067291,42.9172689 171.34262,40.8957245 168.223259,40.78125 C166.143025,40.7771968 164.153888,41.6313892 162.728166,43.1410004 C161.302444,44.6506117 160.567314,46.6809809 160.697333,48.75 C160.651126,50.8674302 161.470932,52.9125531 162.96838,54.4154514 C164.465828,55.9183496 166.512161,56.7497977 168.637185,56.71875 C171.310504,56.7331106 173.81247,55.4089604 175.29763,53.19375 L172.569481,51.31875 C171.741152,52.6948916 170.247463,53.5353132 168.637185,53.53125 C166.969424,53.5945971 165.432347,52.6353747 164.761333,51.1125 L175.466963,46.70625 L175.071852,45.8625 Z M164.159259,48.525 C164.082216,47.353433 164.481605,46.2002718 165.267389,45.3254834 C166.053173,44.4506949 167.159207,43.9279156 168.336148,43.875 C169.57674,43.7935342 170.746451,44.4575298 171.308889,45.5625 L164.159259,48.525 Z M155.466815,56.25 L158.985185,56.25 L158.985185,32.8125 L155.466815,32.8125 L155.466815,56.25 Z M149.709481,42.5625 L149.577778,42.5625 C148.505262,41.367519 146.972034,40.6853999 145.363259,40.6875 C141.092573,40.8938844 137.736368,44.4046493 137.736368,48.665625 C137.736368,52.9266007 141.092573,56.4373656 145.363259,56.64375 C146.977249,56.6707945 148.520415,55.9842541 149.577778,54.76875 L149.690667,54.76875 L149.690667,55.9125 C149.690667,58.96875 148.053778,60.6 145.419704,60.6 C143.62534,60.5581452 142.034407,59.4394377 141.393333,57.76875 L138.326519,59.04375 C139.50749,61.9065206 142.313812,63.7684844 145.419704,63.75 C149.540148,63.75 152.94563,61.33125 152.94563,55.44375 L152.94563,41.25 L149.709481,41.25 L149.709481,42.5625 Z M145.683111,53.5875 C143.167359,53.3665496 141.237878,51.2668032 141.237878,48.75 C141.237878,46.2331968 143.167359,44.1334504 145.683111,43.9125 C146.898773,43.9746703 148.037759,44.523319 148.841836,45.4340559 C149.645913,46.3447928 150.046968,47.5404691 149.954074,48.75 C150.057809,49.9650926 149.658037,51.1695584 148.847707,52.0833519 C148.037377,52.9971455 146.887091,53.5406509 145.664296,53.5875 L145.683111,53.5875 Z M191.55363,32.8125 L183.143407,32.8125 L183.143407,56.25 L186.661778,56.25 L186.661778,47.3625 L191.572444,47.3625 C194.305642,47.5581821 196.919566,46.2159543 198.346023,43.8843243 C199.772479,41.5526943 199.772479,38.6223057 198.346023,36.2906757 C196.919566,33.9590457 194.305642,32.6168179 191.572444,32.8125 L191.55363,32.8125 Z M191.55363,44.0625 L186.642963,44.0625 L186.642963,36.075 L191.628889,36.075 C193.857787,36.075 195.664667,37.8756548 195.664667,40.096875 C195.664667,42.3180952 193.857787,44.11875 191.628889,44.11875 L191.55363,44.0625 Z M213.247111,40.6875 C210.62943,40.531573 208.168403,41.93829 206.981778,44.26875 L210.105037,45.5625 C210.734215,44.4068778 211.988635,43.7303542 213.303556,43.8375 C214.205779,43.7324899 215.112513,43.9930689 215.82009,44.5607066 C216.527668,45.1283443 216.976769,45.9554529 217.066519,46.85625 L217.066519,47.1 C215.936487,46.5037483 214.67627,46.1946097 213.39763,46.2 C210.029778,46.2 206.624296,48.075 206.624296,51.46875 C206.691442,52.930704 207.349119,54.3034303 208.447699,55.27462 C209.546279,56.2458098 210.99234,56.7328737 212.456889,56.625 C214.261661,56.7541558 215.993263,55.8913372 216.972444,54.375 L217.085333,54.375 L217.085333,56.25 L220.472,56.25 L220.472,47.23125 C220.472,43.125 217.348741,40.74375 213.341185,40.74375 L213.247111,40.6875 Z M212.81437,53.53125 C211.666667,53.53125 210.067407,52.95 210.067407,51.54375 C210.067407,49.66875 212.061778,49.05 213.83037,49.05 C214.948049,49.0225161 216.052646,49.2944764 217.028889,49.8375 C216.785606,51.9364032 215.027978,53.5360135 212.908444,53.5875 L212.81437,53.53125 Z M232.814519,41.25 L228.788148,51.4125 L228.675259,51.4125 L224.49837,41.25 L220.735407,41.25 L227.000741,55.4625 L223.425926,63.35625 L227.094815,63.35625 L236.728,41.25 L232.814519,41.25 Z M201.186815,56.25 L204.705185,56.25 L204.705185,32.8125 L201.186815,32.8125 L201.186815,56.25 Z" id="Google-Play" fill="#FFFFFF"></path>
                        <path d="M89.2198519,19.2 C89.2844874,20.5898082 88.7744443,21.9452379 87.8087407,22.95 C86.7296166,24.067131 85.2244955,24.6739234 83.6694815,24.61875 C81.2844031,24.6001477 79.1429159,23.1585303 78.2351831,20.9604613 C77.3274504,18.7623922 77.8303705,16.2362296 79.5114074,14.55 C80.6036695,13.4387362 82.108941,12.8278414 83.6694815,12.8625 C84.4648921,12.8598589 85.2524394,13.0193781 85.9837037,13.33125 C86.6645262,13.6049129 87.270607,14.0354185 87.7522963,14.5875 L86.7551111,15.58125 C85.9937636,14.6787683 84.8508352,14.1856685 83.6694815,14.25 C82.4819833,14.2441948 81.3433671,14.7207894 80.5161863,15.5698859 C79.6890056,16.4189824 79.2446666,17.5672826 79.2856296,18.75 C79.2604214,20.5372307 80.3166373,22.1640741 81.9628523,22.8736093 C83.6090672,23.5831446 85.5219741,23.2360231 86.8115556,21.99375 C87.3905053,21.3685061 87.7244184,20.5565649 87.7522963,19.70625 L83.6694815,19.70625 L83.6694815,18.35625 L89.1445926,18.35625 C89.1947776,18.634714 89.2199636,18.9170806 89.2198519,19.2 L89.2198519,19.2 Z M97.837037,14.5125 L92.757037,14.5125 L92.757037,18.075 L97.3854815,18.075 L97.3854815,19.425 L92.757037,19.425 L92.757037,22.9875 L97.837037,22.9875 L97.837037,24.375 L91.2518519,24.375 L91.2518519,13.125 L97.837037,13.125 L97.837037,14.5125 Z M104.008296,24.375 L102.559556,24.375 L102.559556,14.5125 L99.3986667,14.5125 L99.3986667,13.125 L107.244444,13.125 L107.244444,14.5125 L104.008296,14.5125 L104.008296,24.375 Z M112.776,24.375 L112.776,13.125 L114.224741,13.125 L114.224741,24.375 L112.776,24.375 Z M120.659407,24.375 L119.210667,24.375 L119.210667,14.5125 L116.049778,14.5125 L116.049778,13.125 L123.801481,13.125 L123.801481,14.5125 L120.659407,14.5125 L120.659407,24.375 Z M138.495852,22.9125 C136.20607,25.1816773 132.507115,25.1816773 130.217333,22.9125 C127.997691,20.5710635 127.997691,16.9101865 130.217333,14.56875 C131.312353,13.469525 132.80233,12.8513118 134.356593,12.8513118 C135.910855,12.8513118 137.400833,13.469525 138.495852,14.56875 C140.724966,16.9064247 140.724966,20.5748253 138.495852,22.9125 L138.495852,22.9125 Z M131.289778,21.975 C132.985602,23.6579345 135.727583,23.6579345 137.423407,21.975 C139.088892,20.1453209 139.088892,17.3546791 137.423407,15.525 C135.727583,13.8420655 132.985602,13.8420655 131.289778,15.525 C129.624294,17.3546791 129.624294,20.1453209 131.289778,21.975 L131.289778,21.975 Z M142.20237,24.375 L142.20237,13.125 L143.970963,13.125 L149.464889,21.88125 L149.464889,13.125 L150.91363,13.125 L150.91363,24.375 L149.408444,24.375 L143.669926,15.20625 L143.669926,24.375 L142.20237,24.375 Z" id="GET-IT-ON" stroke="#FFFFFF" stroke-width="0.75" fill="#FFFFFF"></path>
                        <g id="Icon" transform="translate(16.933333, 13.125000)">
                            <path d="M2.70933333,1.0125 C2.09609259,1.74582813 1.78656761,2.68461548 1.84385185,3.6375 L1.84385185,45.1125 C1.78656761,46.0653845 2.09609259,47.0041719 2.70933333,47.7375 L2.84103704,47.86875 L26.1525926,24.65625 L26.1525926,24.1125 L2.84103704,0.88125 L2.70933333,1.0125 Z" id="Shape" fill="url(#linearGradient-1)"></path>
                            <path d="M33.8666667,32.4 L26.1525926,24.65625 L26.1525926,24.1125 L33.8666667,16.35 L34.036,16.44375 L43.2740741,21.675 C45.9081481,23.15625 45.9081481,25.59375 43.2740741,27.09375 L34.0736296,32.30625 L33.8666667,32.4 Z" id="Shape" fill="url(#linearGradient-2)"></path>
                            <path d="M34.0924444,32.2875 L26.1525926,24.375 L2.70933333,47.7375 C3.81699484,48.7078545 5.46086634,48.7551105 6.62281481,47.85 L34.1112593,32.2875" id="Shape" fill="url(#linearGradient-3)"></path>
                            <path d="M34.0924444,16.4625 L6.604,0.9 C5.44205153,-0.00511051706 3.79818002,0.0421454991 2.69051852,1.0125 L26.1525926,24.375 L34.0924444,16.4625 Z" id="Shape" fill="url(#linearGradient-4)"></path>
                            <path d="M33.8666667,32.11875 L6.604,47.5875 C5.48835399,48.4187558 3.95668305,48.4187558 2.84103704,47.5875 L2.70933333,47.71875 L2.84103704,47.85 C3.95458392,48.6875236 5.49045311,48.6875236 6.604,47.85 L34.0924444,32.2875 L33.8666667,32.11875 Z" id="Shape" fill="#000000" opacity="0.2"></path>
                            <path d="M2.70933333,47.475 C2.09609259,46.7416719 1.78656761,45.8028845 1.84385185,44.85 L1.84385185,45.13125 C1.78656761,46.0841345 2.09609259,47.0229219 2.70933333,47.75625 L2.84103704,47.625 L2.70933333,47.475 Z M43.2740741,26.8125 L33.8666667,32.11875 L34.036,32.2875 L43.2740741,27.075 C44.341006,26.5755247 45.0585998,25.5457494 45.1555556,24.375 C44.9411221,25.4340712 44.2462468,26.3342973 43.2740741,26.8125 Z" id="Shape" fill="#000000" opacity="0.12"></path>
                            <path d="M6.604,1.1625 L43.2740741,21.9375 C44.2462468,22.4157027 44.9411221,23.3159288 45.1555556,24.375 C45.0585998,23.2042506 44.341006,22.1744753 43.2740741,21.675 L6.604,0.9 C3.96992593,-0.58125 1.82503704,0.65625 1.82503704,3.65625 L1.82503704,3.9375 C1.88148148,0.91875 3.98874074,-0.31875 6.604,1.1625 L6.604,1.1625 Z" id="Shape" fill="#FFFFFF" opacity="0.25"></path>
                        </g>
                    </g>
                </g>
            </g>
        </g>
    </g>
</svg>