<svg height="457pt" viewBox="0 0 457 457.14286" width="457pt" xmlns="http://www.w3.org/2000/svg"><path fill="#ffffff" d="m228.519531 0c-125.964843 0-228.4492185 102.589844-228.4492185 228.695312 0 125.964844 102.4843755 228.449219 228.4492185 228.449219 125.960938 0 228.445313-102.484375 228.445313-228.449219 0-126.105468-102.484375-228.695312-228.445313-228.695312zm0 438.855469c-115.886719 0-210.164062-94.273438-210.164062-210.160157 0-116.015624 94.277343-210.410156 210.164062-210.410156 115.882813 0 210.160157 94.394532 210.160157 210.410156 0 115.886719-94.277344 210.160157-210.160157 210.160157zm0 0"/><path fill="#ffffff" d="m228.742188 127.054688c25.5 0 46.238281 20.738281 46.238281 46.230468 0 5.054688 4.089843 9.144532 9.144531 9.144532s9.144531-4.089844 9.144531-9.144532c0-32.460937-24.132812-59.328125-55.386719-63.792968v-23.035157c0-5.054687-4.089843-9.144531-9.140624-9.144531-5.054688 0-9.144532 4.089844-9.144532 9.144531v23.035157c-31.253906 4.464843-55.382812 31.332031-55.382812 63.792968 0 35.582032 28.945312 64.527344 64.527344 64.527344 25.5 0 46.238281 20.652344 46.238281 46.042969 0 25.492187-20.738281 46.234375-46.238281 46.234375s-46.242188-20.742188-46.242188-46.234375c0-5.050781-4.089844-9.140625-9.144531-9.140625-5.050781 0-9.140625 4.089844-9.140625 9.140625 0 32.460937 24.128906 59.332031 55.382812 63.792969v23.039062c0 5.054688 4.089844 9.144531 9.144532 9.144531 5.050781 0 9.140624-4.089843 9.140624-9.144531v-23.039062c31.253907-4.460938 55.386719-31.332032 55.386719-63.792969 0-35.472657-28.949219-64.328125-64.527343-64.328125-25.5 0-46.242188-20.742188-46.242188-46.242188 0-25.492187 20.742188-46.230468 46.242188-46.230468zm0 0"/></svg>